# xmcd
#
# Track frame offsets:
#	150
#	10779
#	17388
#	24111
#	32060
#	38491
#	44083
#	51946
#	55332
#	62294
#	68043
#	78308
#	87119
#	96001
#	101846
#	112033
#	123931
#	130713
#	134141
#	141805
#	146246
#	153755
#	159084
#	174295
#	184837
#
# Disc length: 2699 seconds
#
# Revision: 0
# Processed by: cddbd v1.5.2PL0 Copyright (c) Steve Scherf et al.
# Submitted via: audiograbber 1.83.01
#
DISCID=400a8919
DTITLE=Agathocles - Split With H.407
DYEAR=2006
DGENRE=Grindcore
TTITLE0=H.407 - It's Not Your Problem
TTITLE1=H.407 - Old Lies
TTITLE2=H.407 - Corrupted Brain
TTITLE3=H.407 - We Cannot Cheat Oourselves
TTITLE4=H.407 - War for the Oil
TTITLE5=H.407 - Concreted Everything Alive
TTITLE6=H.407 - Grinded
TTITLE7=H.407 - They Try to Entrap Us
TTITLE8=H.407 - USA
TTITLE9=H.407 - Society
TTITLE10=H.407 - Money's Failure
TTITLE11=H.407 - Swindle (Dezerter cover)
TTITLE12=H.407 - Expression
TTITLE13=Agathocles - Criminalisation of Strange Behaviour (live)
TTITLE14=Agathocles - Knock Bakc (live)
TTITLE15=Agathocles - Trust? Not Me! (live)
TTITLE16=Agathocles - Thanks for Your Hostility (live)
TTITLE17=Agathocles - Progress or Stupidity? (live)
TTITLE18=Agathocles - Remember (live)
TTITLE19=Agathocles - Consuming Endoderme Pus (live)
TTITLE20=Agathocles - Cheers Mankind Cheers (live)
TTITLE21=Agathocles - Life Control (live)
TTITLE22=Agathocles - Distraction (live)
TTITLE23=Agathocles - Big-Headed Bastards (live)
TTITLE24=Agathocles - Kill Your Fucking Idols (live)
EXTD=
EXTT0=
EXTT1=
EXTT2=
EXTT3=
EXTT4=
EXTT5=
EXTT6=
EXTT7=
EXTT8=
EXTT9=
EXTT10=
EXTT11=
EXTT12=
EXTT13=
EXTT14=
EXTT15=
EXTT16=
EXTT17=
EXTT18=
EXTT19=
EXTT20=
EXTT21=
EXTT22=
EXTT23=
EXTT24=
PLAYORDER=
